<svg width="32" height="32" viewBox="0 0 32 32" fill="none" xmlns="http://www.w3.org/2000/svg">
  <path d="M16 0C7.163 0 0 7.163 0 16C0 24.837 7.163 32 16 32C24.837 32 32 24.837 32 16C32 7.163 24.837 0 16 0Z" fill="#FFFFFF"/>
  <path d="M8 16C8 11.582 11.582 8 16 8C20.418 8 24 11.582 24 16C24 20.418 20.418 24 16 24" stroke="#000000" stroke-width="2" stroke-linecap="round"/>
  <path d="M16 24C13.791 24 12 22.209 12 20C12 17.791 13.791 16 16 16" stroke="#000000" stroke-width="2" stroke-linecap="round"/>
</svg>
