<svg width="32" height="32" viewBox="0 0 32 32" fill="none" xmlns="http://www.w3.org/2000/svg">
  <path d="M16 0C7.163 0 0 7.163 0 16C0 24.837 7.163 32 16 32C24.837 32 32 24.837 32 16C32 7.163 24.837 0 16 0Z" fill="#FF5A00"/>
  <path d="M22 10H10C8.895 10 8 10.895 8 12V20C8 21.105 8.895 22 10 22H22C23.105 22 24 21.105 24 20V12C24 10.895 23.105 10 22 10ZM21 16C21 18.761 18.761 21 16 21C13.239 21 11 18.761 11 16C11 13.239 13.239 11 16 11C18.761 11 21 13.239 21 16Z" fill="white"/>
  <path d="M16 13C14.343 13 13 14.343 13 16C13 17.657 14.343 19 16 19C17.657 19 19 17.657 19 16C19 14.343 17.657 13 16 13Z" fill="#FF5A00"/>
</svg>
